<?xml version="1.0" encoding="utf-8" standalone="no"?>
<!DOCTYPE svg PUBLIC "-//W3C//DTD SVG 1.1//EN"
  "http://www.w3.org/Graphics/SVG/1.1/DTD/svg11.dtd">
<svg xmlns:xlink="http://www.w3.org/1999/xlink" width="600.3pt" height="225.072pt" viewBox="0 0 600.3 225.072" xmlns="http://www.w3.org/2000/svg" version="1.1">
 <metadata>
  <rdf:RDF xmlns:dc="http://purl.org/dc/elements/1.1/" xmlns:cc="http://creativecommons.org/ns#" xmlns:rdf="http://www.w3.org/1999/02/22-rdf-syntax-ns#">
   <cc:Work>
    <dc:type rdf:resource="http://purl.org/dc/dcmitype/StillImage"/>
    <dc:format>image/svg+xml</dc:format>
    <dc:creator>
     <cc:Agent>
      <dc:title>Matplotlib v3.11.1, https://matplotlib.org/</dc:title>
     </cc:Agent>
    </dc:creator>
   </cc:Work>
  </rdf:RDF>
 </metadata>
 <defs>
  <style type="text/css">*{stroke-linejoin: round; stroke-linecap: butt}</style>
 </defs>
 <g id="figure_1">
  <g id="patch_1">
   <path d="M 0 225.072 
L 600.3 225.072 
L 600.3 -0 
L 0 -0 
L 0 225.072 
z
" style="fill: none"/>
  </g>
  <g id="axes_1">
   <g id="patch_2">
    <path d="M 30.2454 93.2244 
L 163.8306 93.2244 
Q 169.299 93.2244 169.299 88.30872 
L 169.299 45.47208 
Q 169.299 40.5564 163.8306 40.5564 
L 30.2454 40.5564 
Q 24.777 40.5564 24.777 45.47208 
L 24.777 88.30872 
Q 24.777 93.2244 30.2454 93.2244 
L 30.2454 93.2244 
z
" clip-path="url(#pb43e2cb359)" style="fill: none; stroke-dasharray: 6.8,5.1; stroke-dashoffset: 0; stroke: #9fc7d8; stroke-width: 1.7; stroke-linejoin: miter"/>
   </g>
   <g id="patch_3">
    <path d="M 30.2454 191.538 
L 163.8306 191.538 
Q 169.299 191.538 169.299 186.62232 
L 169.299 143.78568 
Q 169.299 138.87 163.8306 138.87 
L 30.2454 138.87 
Q 24.777 138.87 24.777 143.78568 
L 24.777 186.62232 
Q 24.777 191.538 30.2454 191.538 
L 30.2454 191.538 
z
" clip-path="url(#pb43e2cb359)" style="fill: none; stroke-dasharray: 6.8,5.1; stroke-dashoffset: 0; stroke: #9fc7d8; stroke-width: 1.7; stroke-linejoin: miter"/>
   </g>
   <g id="patch_4">
    <path d="M 416.9394 142.3812 
L 558.3366 142.3812 
Q 563.805 142.3812 563.805 137.46552 
L 563.805 94.62888 
Q 563.805 89.7132 558.3366 89.7132 
L 416.9394 89.7132 
Q 411.471 89.7132 411.471 94.62888 
L 411.471 137.46552 
Q 411.471 142.3812 416.9394 142.3812 
L 416.9394 142.3812 
z
" clip-path="url(#pb43e2cb359)" style="fill: none; stroke-dasharray: 6.8,5.1; stroke-dashoffset: 0; stroke: #9fc7d8; stroke-width: 1.7; stroke-linejoin: miter"/>
   </g>
   <g id="patch_5">
    <path d="M 237.8493 138.87 
L 354.6387 138.87 
Q 360.8883 138.87 360.8883 133.25208 
L 360.8883 98.84232 
Q 360.8883 93.2244 354.6387 93.2244 
L 237.8493 93.2244 
Q 231.5997 93.2244 231.5997 98.84232 
L 231.5997 133.25208 
Q 231.5997 138.87 237.8493 138.87 
z
" clip-path="url(#pb43e2cb359)" style="fill: #d7eff6"/>
   </g>
   <g id="patch_6">
    <path d="M 173.757583 68.547633 
Q 200.451936 86.203711 225.18801 102.56455 
" clip-path="url(#pb43e2cb359)" style="fill: none; stroke: #0074a2; stroke-width: 2.1; stroke-linecap: round"/>
    <path d="M 221.838609 96.752364 
L 225.18801 102.56455 
L 218.52862 101.75676 
z
" clip-path="url(#pb43e2cb359)" style="fill: #0074a2; stroke: #0074a2; stroke-width: 2.1; stroke-linecap: round"/>
   </g>
   <g id="patch_7">
    <path d="M 173.757583 163.546767 
Q 200.451936 145.890689 225.18801 129.52985 
" clip-path="url(#pb43e2cb359)" style="fill: none; stroke: #0074a2; stroke-width: 2.1; stroke-linecap: round"/>
    <path d="M 218.52862 130.33764 
L 225.18801 129.52985 
L 221.838609 135.342036 
z
" clip-path="url(#pb43e2cb359)" style="fill: #0074a2; stroke: #0074a2; stroke-width: 2.1; stroke-linecap: round"/>
   </g>
   <g id="patch_8">
    <path d="M 365.842071 116.0472 
Q 387.15683 116.0472 406.123717 116.0472 
" clip-path="url(#pb43e2cb359)" style="fill: none; stroke: #0074a2; stroke-width: 2.1; stroke-linecap: round"/>
    <path d="M 400.123717 113.0472 
L 406.123717 116.0472 
L 400.123717 119.0472 
z
" clip-path="url(#pb43e2cb359)" style="fill: #0074a2; stroke: #0074a2; stroke-width: 2.1; stroke-linecap: round"/>
   </g>
   <g id="text_1">
    <!-- stream a -->
    <g style="fill: #0074a2" transform="translate(62.147375 55.780079) scale(0.14 -0.14)">
     <defs>
      <path id="DejaVuSans-Bold-56" d="M 3272 3391 
L 3272 2541 
Q 2913 2691 2578 2766 
Q 2244 2841 1947 2841 
Q 1628 2841 1473 2761 
Q 1319 2681 1319 2516 
Q 1319 2381 1436 2309 
Q 1553 2238 1856 2203 
L 2053 2175 
Q 2913 2066 3209 1816 
Q 3506 1566 3506 1031 
Q 3506 472 3093 190 
Q 2681 -91 1863 -91 
Q 1516 -91 1145 -36 
Q 775 19 384 128 
L 384 978 
Q 719 816 1070 734 
Q 1422 653 1784 653 
Q 2113 653 2278 743 
Q 2444 834 2444 1013 
Q 2444 1163 2330 1236 
Q 2216 1309 1875 1350 
L 1678 1375 
Q 931 1469 631 1722 
Q 331 1975 331 2491 
Q 331 3047 712 3315 
Q 1094 3584 1881 3584 
Q 2191 3584 2531 3537 
Q 2872 3491 3272 3391 
z
" transform="scale(0.015625)"/>
      <path id="DejaVuSans-Bold-57" d="M 1759 4494 
L 1759 3500 
L 2913 3500 
L 2913 2700 
L 1759 2700 
L 1759 1216 
Q 1759 972 1856 886 
Q 1953 800 2241 800 
L 2816 800 
L 2816 0 
L 1856 0 
Q 1194 0 917 276 
Q 641 553 641 1216 
L 641 2700 
L 84 2700 
L 84 3500 
L 641 3500 
L 641 4494 
L 1759 4494 
z
" transform="scale(0.015625)"/>
      <path id="DejaVuSans-Bold-55" d="M 3138 2547 
Q 2991 2616 2845 2648 
Q 2700 2681 2553 2681 
Q 2122 2681 1889 2404 
Q 1656 2128 1656 1613 
L 1656 0 
L 538 0 
L 538 3500 
L 1656 3500 
L 1656 2925 
Q 1872 3269 2151 3426 
Q 2431 3584 2822 3584 
Q 2878 3584 2943 3579 
Q 3009 3575 3134 3559 
L 3138 2547 
z
" transform="scale(0.015625)"/>
      <path id="DejaVuSans-Bold-48" d="M 4031 1759 
L 4031 1441 
L 1416 1441 
Q 1456 1047 1700 850 
Q 1944 653 2381 653 
Q 2734 653 3104 758 
Q 3475 863 3866 1075 
L 3866 213 
Q 3469 63 3072 -14 
Q 2675 -91 2278 -91 
Q 1328 -91 801 392 
Q 275 875 275 1747 
Q 275 2603 792 3093 
Q 1309 3584 2216 3584 
Q 3041 3584 3536 3087 
Q 4031 2591 4031 1759 
z
M 2881 2131 
Q 2881 2450 2695 2645 
Q 2509 2841 2209 2841 
Q 1884 2841 1681 2658 
Q 1478 2475 1428 2131 
L 2881 2131 
z
" transform="scale(0.015625)"/>
      <path id="DejaVuSans-Bold-44" d="M 2106 1575 
Q 1756 1575 1579 1456 
Q 1403 1338 1403 1106 
Q 1403 894 1545 773 
Q 1688 653 1941 653 
Q 2256 653 2472 879 
Q 2688 1106 2688 1447 
L 2688 1575 
L 2106 1575 
z
M 3816 1997 
L 3816 0 
L 2688 0 
L 2688 519 
Q 2463 200 2181 54 
Q 1900 -91 1497 -91 
Q 953 -91 614 226 
Q 275 544 275 1050 
Q 275 1666 698 1953 
Q 1122 2241 2028 2241 
L 2688 2241 
L 2688 2328 
Q 2688 2594 2478 2717 
Q 2269 2841 1825 2841 
Q 1466 2841 1156 2769 
Q 847 2697 581 2553 
L 581 3406 
Q 941 3494 1303 3539 
Q 1666 3584 2028 3584 
Q 2975 3584 3395 3211 
Q 3816 2838 3816 1997 
z
" transform="scale(0.015625)"/>
      <path id="DejaVuSans-Bold-50" d="M 3781 2919 
Q 3994 3244 4286 3414 
Q 4578 3584 4928 3584 
Q 5531 3584 5847 3212 
Q 6163 2841 6163 2131 
L 6163 0 
L 5038 0 
L 5038 1825 
Q 5041 1866 5042 1909 
Q 5044 1953 5044 2034 
Q 5044 2406 4934 2573 
Q 4825 2741 4581 2741 
Q 4263 2741 4089 2478 
Q 3916 2216 3909 1719 
L 3909 0 
L 2784 0 
L 2784 1825 
Q 2784 2406 2684 2573 
Q 2584 2741 2328 2741 
Q 2006 2741 1831 2477 
Q 1656 2213 1656 1722 
L 1656 0 
L 531 0 
L 531 3500 
L 1656 3500 
L 1656 2988 
Q 1863 3284 2130 3434 
Q 2397 3584 2719 3584 
Q 3081 3584 3359 3409 
Q 3638 3234 3781 2919 
z
" transform="scale(0.015625)"/>
      <path id="DejaVuSans-Bold-3" transform="scale(0.015625)"/>
     </defs>
     <use xlink:href="#DejaVuSans-Bold-56"/>
     <use xlink:href="#DejaVuSans-Bold-57" transform="translate(59.515625 0)"/>
     <use xlink:href="#DejaVuSans-Bold-55" transform="translate(107.3125 0)"/>
     <use xlink:href="#DejaVuSans-Bold-48" transform="translate(156.625 0)"/>
     <use xlink:href="#DejaVuSans-Bold-44" transform="translate(224.453125 0)"/>
     <use xlink:href="#DejaVuSans-Bold-50" transform="translate(291.9375 0)"/>
     <use xlink:href="#DejaVuSans-Bold-3" transform="translate(396.140625 0)"/>
     <use xlink:href="#DejaVuSans-Bold-44" transform="translate(430.953125 0)"/>
    </g>
   </g>
   <g id="patch_9">
    <path d="M 57.7827 77.424 
L 69.5007 77.424 
Q 72.2349 77.424 72.2349 74.96616 
L 72.2349 64.43256 
Q 72.2349 61.97472 69.5007 61.97472 
L 57.7827 61.97472 
Q 55.0485 61.97472 55.0485 64.43256 
L 55.0485 74.96616 
Q 55.0485 77.424 57.7827 77.424 
z
" clip-path="url(#pb43e2cb359)" style="fill: #0074a2"/>
   </g>
   <g id="patch_10">
    <path d="M 80.0469 77.424 
L 91.7649 77.424 
Q 94.4991 77.424 94.4991 74.96616 
L 94.4991 64.43256 
Q 94.4991 61.97472 91.7649 61.97472 
L 80.0469 61.97472 
Q 77.3127 61.97472 77.3127 64.43256 
L 77.3127 74.96616 
Q 77.3127 77.424 80.0469 77.424 
z
" clip-path="url(#pb43e2cb359)" style="fill: #0074a2"/>
   </g>
   <g id="patch_11">
    <path d="M 102.3111 77.424 
L 114.0291 77.424 
Q 116.7633 77.424 116.7633 74.96616 
L 116.7633 64.43256 
Q 116.7633 61.97472 114.0291 61.97472 
L 102.3111 61.97472 
Q 99.5769 61.97472 99.5769 64.43256 
L 99.5769 74.96616 
Q 99.5769 77.424 102.3111 77.424 
z
" clip-path="url(#pb43e2cb359)" style="fill: #0074a2"/>
   </g>
   <g id="patch_12">
    <path d="M 124.5753 77.424 
L 136.2933 77.424 
Q 139.0275 77.424 139.0275 74.96616 
L 139.0275 64.43256 
Q 139.0275 61.97472 136.2933 61.97472 
L 124.5753 61.97472 
Q 121.8411 61.97472 121.8411 64.43256 
L 121.8411 74.96616 
Q 121.8411 77.424 124.5753 77.424 
z
" clip-path="url(#pb43e2cb359)" style="fill: #0074a2"/>
   </g>
   <g id="text_2">
    <!-- stream b -->
    <g style="fill: #0074a2" transform="translate(61.860812 154.094226) scale(0.14 -0.14)">
     <defs>
      <path id="DejaVuSans-Bold-45" d="M 2400 722 
Q 2759 722 2948 984 
Q 3138 1247 3138 1747 
Q 3138 2247 2948 2509 
Q 2759 2772 2400 2772 
Q 2041 2772 1848 2508 
Q 1656 2244 1656 1747 
Q 1656 1250 1848 986 
Q 2041 722 2400 722 
z
M 1656 2988 
Q 1888 3294 2169 3439 
Q 2450 3584 2816 3584 
Q 3463 3584 3878 3070 
Q 4294 2556 4294 1747 
Q 4294 938 3878 423 
Q 3463 -91 2816 -91 
Q 2450 -91 2169 54 
Q 1888 200 1656 506 
L 1656 0 
L 538 0 
L 538 4863 
L 1656 4863 
L 1656 2988 
z
" transform="scale(0.015625)"/>
     </defs>
     <use xlink:href="#DejaVuSans-Bold-56"/>
     <use xlink:href="#DejaVuSans-Bold-57" transform="translate(59.515625 0)"/>
     <use xlink:href="#DejaVuSans-Bold-55" transform="translate(107.3125 0)"/>
     <use xlink:href="#DejaVuSans-Bold-48" transform="translate(156.625 0)"/>
     <use xlink:href="#DejaVuSans-Bold-44" transform="translate(224.453125 0)"/>
     <use xlink:href="#DejaVuSans-Bold-50" transform="translate(291.9375 0)"/>
     <use xlink:href="#DejaVuSans-Bold-3" transform="translate(396.140625 0)"/>
     <use xlink:href="#DejaVuSans-Bold-45" transform="translate(430.953125 0)"/>
    </g>
   </g>
   <g id="patch_13">
    <path d="M 57.7827 175.7376 
L 69.5007 175.7376 
Q 72.2349 175.7376 72.2349 173.27976 
L 72.2349 162.74616 
Q 72.2349 160.28832 69.5007 160.28832 
L 57.7827 160.28832 
Q 55.0485 160.28832 55.0485 162.74616 
L 55.0485 173.27976 
Q 55.0485 175.7376 57.7827 175.7376 
z
" clip-path="url(#pb43e2cb359)" style="fill: #38cced"/>
   </g>
   <g id="patch_14">
    <path d="M 80.0469 175.7376 
L 91.7649 175.7376 
Q 94.4991 175.7376 94.4991 173.27976 
L 94.4991 162.74616 
Q 94.4991 160.28832 91.7649 160.28832 
L 80.0469 160.28832 
Q 77.3127 160.28832 77.3127 162.74616 
L 77.3127 173.27976 
Q 77.3127 175.7376 80.0469 175.7376 
z
" clip-path="url(#pb43e2cb359)" style="fill: #38cced"/>
   </g>
   <g id="patch_15">
    <path d="M 102.3111 175.7376 
L 114.0291 175.7376 
Q 116.7633 175.7376 116.7633 173.27976 
L 116.7633 162.74616 
Q 116.7633 160.28832 114.0291 160.28832 
L 102.3111 160.28832 
Q 99.5769 160.28832 99.5769 162.74616 
L 99.5769 173.27976 
Q 99.5769 175.7376 102.3111 175.7376 
z
" clip-path="url(#pb43e2cb359)" style="fill: #38cced"/>
   </g>
   <g id="patch_16">
    <path d="M 124.5753 175.7376 
L 136.2933 175.7376 
Q 139.0275 175.7376 139.0275 173.27976 
L 139.0275 162.74616 
Q 139.0275 160.28832 136.2933 160.28832 
L 124.5753 160.28832 
Q 121.8411 160.28832 121.8411 162.74616 
L 121.8411 173.27976 
Q 121.8411 175.7376 124.5753 175.7376 
z
" clip-path="url(#pb43e2cb359)" style="fill: #38cced"/>
   </g>
   <g id="text_3">
    <!-- CombineLatest -->
    <g style="fill: #0074a2" transform="translate(232.845562 119.94427) scale(0.15 -0.15)">
     <defs>
      <path id="DejaVuSans-Bold-26" d="M 4288 256 
Q 3956 84 3597 -3 
Q 3238 -91 2847 -91 
Q 1681 -91 1000 561 
Q 319 1213 319 2328 
Q 319 3447 1000 4098 
Q 1681 4750 2847 4750 
Q 3238 4750 3597 4662 
Q 3956 4575 4288 4403 
L 4288 3438 
Q 3953 3666 3628 3772 
Q 3303 3878 2944 3878 
Q 2300 3878 1931 3465 
Q 1563 3053 1563 2328 
Q 1563 1606 1931 1193 
Q 2300 781 2944 781 
Q 3303 781 3628 887 
Q 3953 994 4288 1222 
L 4288 256 
z
" transform="scale(0.015625)"/>
      <path id="DejaVuSans-Bold-52" d="M 2203 2784 
Q 1831 2784 1636 2517 
Q 1441 2250 1441 1747 
Q 1441 1244 1636 976 
Q 1831 709 2203 709 
Q 2569 709 2762 976 
Q 2956 1244 2956 1747 
Q 2956 2250 2762 2517 
Q 2569 2784 2203 2784 
z
M 2203 3584 
Q 3106 3584 3614 3096 
Q 4122 2609 4122 1747 
Q 4122 884 3614 396 
Q 3106 -91 2203 -91 
Q 1297 -91 786 396 
Q 275 884 275 1747 
Q 275 2609 786 3096 
Q 1297 3584 2203 3584 
z
" transform="scale(0.015625)"/>
      <path id="DejaVuSans-Bold-4c" d="M 538 3500 
L 1656 3500 
L 1656 0 
L 538 0 
L 538 3500 
z
M 538 4863 
L 1656 4863 
L 1656 3950 
L 538 3950 
L 538 4863 
z
" transform="scale(0.015625)"/>
      <path id="DejaVuSans-Bold-51" d="M 4056 2131 
L 4056 0 
L 2931 0 
L 2931 347 
L 2931 1631 
Q 2931 2084 2911 2256 
Q 2891 2428 2841 2509 
Q 2775 2619 2662 2680 
Q 2550 2741 2406 2741 
Q 2056 2741 1856 2470 
Q 1656 2200 1656 1722 
L 1656 0 
L 538 0 
L 538 3500 
L 1656 3500 
L 1656 2988 
Q 1909 3294 2193 3439 
Q 2478 3584 2822 3584 
Q 3428 3584 3742 3212 
Q 4056 2841 4056 2131 
z
" transform="scale(0.015625)"/>
      <path id="DejaVuSans-Bold-2f" d="M 588 4666 
L 1791 4666 
L 1791 909 
L 3903 909 
L 3903 0 
L 588 0 
L 588 4666 
z
" transform="scale(0.015625)"/>
     </defs>
     <use xlink:href="#DejaVuSans-Bold-26"/>
     <use xlink:href="#DejaVuSans-Bold-52" transform="translate(73.390625 0)"/>
     <use xlink:href="#DejaVuSans-Bold-50" transform="translate(142.09375 0)"/>
     <use xlink:href="#DejaVuSans-Bold-45" transform="translate(246.296875 0)"/>
     <use xlink:href="#DejaVuSans-Bold-4c" transform="translate(317.875 0)"/>
     <use xlink:href="#DejaVuSans-Bold-51" transform="translate(352.15625 0)"/>
     <use xlink:href="#DejaVuSans-Bold-48" transform="translate(423.34375 0)"/>
     <use xlink:href="#DejaVuSans-Bold-2f" transform="translate(491.171875 0)"/>
     <use xlink:href="#DejaVuSans-Bold-44" transform="translate(554.890625 0)"/>
     <use xlink:href="#DejaVuSans-Bold-57" transform="translate(622.375 0)"/>
     <use xlink:href="#DejaVuSans-Bold-48" transform="translate(670.171875 0)"/>
     <use xlink:href="#DejaVuSans-Bold-56" transform="translate(738 0)"/>
     <use xlink:href="#DejaVuSans-Bold-57" transform="translate(797.515625 0)"/>
    </g>
   </g>
   <g id="text_4">
    <!-- aligned pairs -->
    <g style="fill: #0074a2" transform="translate(436.173781 104.937426) scale(0.14 -0.14)">
     <defs>
      <path id="DejaVuSans-Bold-4f" d="M 538 4863 
L 1656 4863 
L 1656 0 
L 538 0 
L 538 4863 
z
" transform="scale(0.015625)"/>
      <path id="DejaVuSans-Bold-4a" d="M 2919 594 
Q 2688 288 2409 144 
Q 2131 0 1766 0 
Q 1125 0 706 504 
Q 288 1009 288 1791 
Q 288 2575 706 3076 
Q 1125 3578 1766 3578 
Q 2131 3578 2409 3434 
Q 2688 3291 2919 2981 
L 2919 3500 
L 4044 3500 
L 4044 353 
Q 4044 -491 3511 -936 
Q 2978 -1381 1966 -1381 
Q 1638 -1381 1331 -1331 
Q 1025 -1281 716 -1178 
L 716 -306 
Q 1009 -475 1290 -558 
Q 1572 -641 1856 -641 
Q 2406 -641 2662 -400 
Q 2919 -159 2919 353 
L 2919 594 
z
M 2181 2772 
Q 1834 2772 1640 2515 
Q 1447 2259 1447 1791 
Q 1447 1309 1634 1061 
Q 1822 813 2181 813 
Q 2531 813 2725 1069 
Q 2919 1325 2919 1791 
Q 2919 2259 2725 2515 
Q 2531 2772 2181 2772 
z
" transform="scale(0.015625)"/>
      <path id="DejaVuSans-Bold-47" d="M 2919 2988 
L 2919 4863 
L 4044 4863 
L 4044 0 
L 2919 0 
L 2919 506 
Q 2688 197 2409 53 
Q 2131 -91 1766 -91 
Q 1119 -91 703 423 
Q 288 938 288 1747 
Q 288 2556 703 3070 
Q 1119 3584 1766 3584 
Q 2128 3584 2408 3439 
Q 2688 3294 2919 2988 
z
M 2181 722 
Q 2541 722 2730 984 
Q 2919 1247 2919 1747 
Q 2919 2247 2730 2509 
Q 2541 2772 2181 2772 
Q 1825 2772 1636 2509 
Q 1447 2247 1447 1747 
Q 1447 1247 1636 984 
Q 1825 722 2181 722 
z
" transform="scale(0.015625)"/>
      <path id="DejaVuSans-Bold-53" d="M 1656 506 
L 1656 -1331 
L 538 -1331 
L 538 3500 
L 1656 3500 
L 1656 2988 
Q 1888 3294 2169 3439 
Q 2450 3584 2816 3584 
Q 3463 3584 3878 3070 
Q 4294 2556 4294 1747 
Q 4294 938 3878 423 
Q 3463 -91 2816 -91 
Q 2450 -91 2169 54 
Q 1888 200 1656 506 
z
M 2400 2772 
Q 2041 2772 1848 2508 
Q 1656 2244 1656 1747 
Q 1656 1250 1848 986 
Q 2041 722 2400 722 
Q 2759 722 2948 984 
Q 3138 1247 3138 1747 
Q 3138 2247 2948 2509 
Q 2759 2772 2400 2772 
z
" transform="scale(0.015625)"/>
     </defs>
     <use xlink:href="#DejaVuSans-Bold-44"/>
     <use xlink:href="#DejaVuSans-Bold-4f" transform="translate(67.484375 0)"/>
     <use xlink:href="#DejaVuSans-Bold-4c" transform="translate(101.765625 0)"/>
     <use xlink:href="#DejaVuSans-Bold-4a" transform="translate(136.046875 0)"/>
     <use xlink:href="#DejaVuSans-Bold-51" transform="translate(207.625 0)"/>
     <use xlink:href="#DejaVuSans-Bold-48" transform="translate(278.8125 0)"/>
     <use xlink:href="#DejaVuSans-Bold-47" transform="translate(346.640625 0)"/>
     <use xlink:href="#DejaVuSans-Bold-3" transform="translate(418.21875 0)"/>
     <use xlink:href="#DejaVuSans-Bold-53" transform="translate(453.03125 0)"/>
     <use xlink:href="#DejaVuSans-Bold-44" transform="translate(524.609375 0)"/>
     <use xlink:href="#DejaVuSans-Bold-4c" transform="translate(592.09375 0)"/>
     <use xlink:href="#DejaVuSans-Bold-55" transform="translate(626.375 0)"/>
     <use xlink:href="#DejaVuSans-Bold-56" transform="translate(675.6875 0)"/>
    </g>
   </g>
   <g id="patch_17">
    <path d="M 437.2506 126.5808 
L 448.9686 126.5808 
Q 451.7028 126.5808 451.7028 124.12296 
L 451.7028 113.58936 
Q 451.7028 111.13152 448.9686 111.13152 
L 437.2506 111.13152 
Q 434.5164 111.13152 434.5164 113.58936 
L 434.5164 124.12296 
Q 434.5164 126.5808 437.2506 126.5808 
z
" clip-path="url(#pb43e2cb359)" style="fill: #38cced"/>
   </g>
   <g id="patch_18">
    <path d="M 459.5148 126.5808 
L 471.2328 126.5808 
Q 473.967 126.5808 473.967 124.12296 
L 473.967 113.58936 
Q 473.967 111.13152 471.2328 111.13152 
L 459.5148 111.13152 
Q 456.7806 111.13152 456.7806 113.58936 
L 456.7806 124.12296 
Q 456.7806 126.5808 459.5148 126.5808 
z
" clip-path="url(#pb43e2cb359)" style="fill: #38cced"/>
   </g>
   <g id="patch_19">
    <path d="M 481.779 126.5808 
L 493.497 126.5808 
Q 496.2312 126.5808 496.2312 124.12296 
L 496.2312 113.58936 
Q 496.2312 111.13152 493.497 111.13152 
L 481.779 111.13152 
Q 479.0448 111.13152 479.0448 113.58936 
L 479.0448 124.12296 
Q 479.0448 126.5808 481.779 126.5808 
z
" clip-path="url(#pb43e2cb359)" style="fill: #38cced"/>
   </g>
   <g id="patch_20">
    <path d="M 504.0432 126.5808 
L 515.7612 126.5808 
Q 518.4954 126.5808 518.4954 124.12296 
L 518.4954 113.58936 
Q 518.4954 111.13152 515.7612 111.13152 
L 504.0432 111.13152 
Q 501.309 111.13152 501.309 113.58936 
L 501.309 124.12296 
Q 501.309 126.5808 504.0432 126.5808 
z
" clip-path="url(#pb43e2cb359)" style="fill: #38cced"/>
   </g>
   <g id="patch_21">
    <path d="M 526.3074 126.5808 
L 538.0254 126.5808 
Q 540.7596 126.5808 540.7596 124.12296 
L 540.7596 113.58936 
Q 540.7596 111.13152 538.0254 111.13152 
L 526.3074 111.13152 
Q 523.5732 111.13152 523.5732 113.58936 
L 523.5732 124.12296 
Q 523.5732 126.5808 526.3074 126.5808 
z
" clip-path="url(#pb43e2cb359)" style="fill: #38cced"/>
   </g>
   <g id="patch_22">
    <path d="M 434.5164 126.5808 
L 443.1096 126.5808 
L 443.1096 111.13152 
L 434.5164 111.13152 
z
" clip-path="url(#pb43e2cb359)" style="fill: #0074a2"/>
   </g>
   <g id="patch_23">
    <path d="M 456.7806 126.5808 
L 465.3738 126.5808 
L 465.3738 111.13152 
L 456.7806 111.13152 
z
" clip-path="url(#pb43e2cb359)" style="fill: #0074a2"/>
   </g>
   <g id="patch_24">
    <path d="M 479.0448 126.5808 
L 487.638 126.5808 
L 487.638 111.13152 
L 479.0448 111.13152 
z
" clip-path="url(#pb43e2cb359)" style="fill: #0074a2"/>
   </g>
   <g id="patch_25">
    <path d="M 501.309 126.5808 
L 509.9022 126.5808 
L 509.9022 111.13152 
L 501.309 111.13152 
z
" clip-path="url(#pb43e2cb359)" style="fill: #0074a2"/>
   </g>
   <g id="patch_26">
    <path d="M 523.5732 126.5808 
L 532.1664 126.5808 
L 532.1664 111.13152 
L 523.5732 111.13152 
z
" clip-path="url(#pb43e2cb359)" style="fill: #0074a2"/>
   </g>
  </g>
 </g>
 <defs>
  <clipPath id="pb43e2cb359">
   <rect x="7.2" y="7.2" width="585.9" height="210.672"/>
  </clipPath>
 </defs>
</svg>
