<?xml version="1.0" encoding="utf-8" standalone="no"?>
<!DOCTYPE svg PUBLIC "-//W3C//DTD SVG 1.1//EN"
  "http://www.w3.org/Graphics/SVG/1.1/DTD/svg11.dtd">
<svg xmlns:xlink="http://www.w3.org/1999/xlink" width="600.3pt" height="225.072pt" viewBox="0 0 600.3 225.072" xmlns="http://www.w3.org/2000/svg" version="1.1">
 <metadata>
  <rdf:RDF xmlns:dc="http://purl.org/dc/elements/1.1/" xmlns:cc="http://creativecommons.org/ns#" xmlns:rdf="http://www.w3.org/1999/02/22-rdf-syntax-ns#">
   <cc:Work>
    <dc:type rdf:resource="http://purl.org/dc/dcmitype/StillImage"/>
    <dc:date>2026-07-12T01:38:41.982078</dc:date>
    <dc:format>image/svg+xml</dc:format>
    <dc:creator>
     <cc:Agent>
      <dc:title>Matplotlib v3.11.0, https://matplotlib.org/</dc:title>
     </cc:Agent>
    </dc:creator>
   </cc:Work>
  </rdf:RDF>
 </metadata>
 <defs>
  <style type="text/css">*{stroke-linejoin: round; stroke-linecap: butt}</style>
 </defs>
 <g id="figure_1">
  <g id="patch_1">
   <path d="M 0 225.072 
L 600.3 225.072 
L 600.3 -0 
L 0 -0 
L 0 225.072 
z
" style="fill: none"/>
  </g>
  <g id="axes_1">
   <g id="patch_2">
    <path d="M 30.2454 142.3812 
L 163.8306 142.3812 
Q 169.299 142.3812 169.299 137.46552 
L 169.299 94.62888 
Q 169.299 89.7132 163.8306 89.7132 
L 30.2454 89.7132 
Q 24.777 89.7132 24.777 94.62888 
L 24.777 137.46552 
Q 24.777 142.3812 30.2454 142.3812 
L 30.2454 142.3812 
z
" clip-path="url(#pfd408ea0b2)" style="fill: none; stroke-dasharray: 6.8,5.1; stroke-dashoffset: 0; stroke: #9fc7d8; stroke-width: 1.7; stroke-linejoin: miter"/>
   </g>
   <g id="patch_3">
    <path d="M 416.9394 142.3812 
L 558.3366 142.3812 
Q 563.805 142.3812 563.805 137.46552 
L 563.805 94.62888 
Q 563.805 89.7132 558.3366 89.7132 
L 416.9394 89.7132 
Q 411.471 89.7132 411.471 94.62888 
L 411.471 137.46552 
Q 411.471 142.3812 416.9394 142.3812 
L 416.9394 142.3812 
z
" clip-path="url(#pfd408ea0b2)" style="fill: none; stroke-dasharray: 6.8,5.1; stroke-dashoffset: 0; stroke: #9fc7d8; stroke-width: 1.7; stroke-linejoin: miter"/>
   </g>
   <g id="patch_4">
    <path d="M 257.5746 138.87 
L 334.9134 138.87 
Q 341.163 138.87 341.163 133.25208 
L 341.163 98.84232 
Q 341.163 93.2244 334.9134 93.2244 
L 257.5746 93.2244 
Q 251.325 93.2244 251.325 98.84232 
L 251.325 133.25208 
Q 251.325 138.87 257.5746 138.87 
z
" clip-path="url(#pfd408ea0b2)" style="fill: #d7eff6"/>
   </g>
   <g id="patch_5">
    <path d="M 174.251114 116.0472 
Q 210.309964 116.0472 244.020944 116.0472 
" clip-path="url(#pfd408ea0b2)" style="fill: none; stroke: #0074a2; stroke-width: 2.1; stroke-linecap: round"/>
    <path d="M 238.020944 113.0472 
L 244.020944 116.0472 
L 238.020944 119.0472 
z
" clip-path="url(#pfd408ea0b2)" style="fill: #0074a2; stroke: #0074a2; stroke-width: 2.1; stroke-linecap: round"/>
   </g>
   <g id="patch_6">
    <path d="M 346.11571 116.0472 
Q 377.291508 116.0472 406.119434 116.0472 
" clip-path="url(#pfd408ea0b2)" style="fill: none; stroke: #0074a2; stroke-width: 2.1; stroke-linecap: round"/>
    <path d="M 400.119434 113.0472 
L 406.119434 116.0472 
L 400.119434 119.0472 
z
" clip-path="url(#pfd408ea0b2)" style="fill: #0074a2; stroke: #0074a2; stroke-width: 2.1; stroke-linecap: round"/>
   </g>
   <g id="text_1">
    <!-- data -->
    <g style="fill: #0074a2" transform="translate(79.233937 104.937426) scale(0.14 -0.14)">
     <defs>
      <path id="DejaVuSans-Bold-47" d="M 2919 2988 
L 2919 4863 
L 4044 4863 
L 4044 0 
L 2919 0 
L 2919 506 
Q 2688 197 2409 53 
Q 2131 -91 1766 -91 
Q 1119 -91 703 423 
Q 288 938 288 1747 
Q 288 2556 703 3070 
Q 1119 3584 1766 3584 
Q 2128 3584 2408 3439 
Q 2688 3294 2919 2988 
z
M 2181 722 
Q 2541 722 2730 984 
Q 2919 1247 2919 1747 
Q 2919 2247 2730 2509 
Q 2541 2772 2181 2772 
Q 1825 2772 1636 2509 
Q 1447 2247 1447 1747 
Q 1447 1247 1636 984 
Q 1825 722 2181 722 
z
" transform="scale(0.015625)"/>
      <path id="DejaVuSans-Bold-44" d="M 2106 1575 
Q 1756 1575 1579 1456 
Q 1403 1338 1403 1106 
Q 1403 894 1545 773 
Q 1688 653 1941 653 
Q 2256 653 2472 879 
Q 2688 1106 2688 1447 
L 2688 1575 
L 2106 1575 
z
M 3816 1997 
L 3816 0 
L 2688 0 
L 2688 519 
Q 2463 200 2181 54 
Q 1900 -91 1497 -91 
Q 953 -91 614 226 
Q 275 544 275 1050 
Q 275 1666 698 1953 
Q 1122 2241 2028 2241 
L 2688 2241 
L 2688 2328 
Q 2688 2594 2478 2717 
Q 2269 2841 1825 2841 
Q 1466 2841 1156 2769 
Q 847 2697 581 2553 
L 581 3406 
Q 941 3494 1303 3539 
Q 1666 3584 2028 3584 
Q 2975 3584 3395 3211 
Q 3816 2838 3816 1997 
z
" transform="scale(0.015625)"/>
      <path id="DejaVuSans-Bold-57" d="M 1759 4494 
L 1759 3500 
L 2913 3500 
L 2913 2700 
L 1759 2700 
L 1759 1216 
Q 1759 972 1856 886 
Q 1953 800 2241 800 
L 2816 800 
L 2816 0 
L 1856 0 
Q 1194 0 917 276 
Q 641 553 641 1216 
L 641 2700 
L 84 2700 
L 84 3500 
L 641 3500 
L 641 4494 
L 1759 4494 
z
" transform="scale(0.015625)"/>
     </defs>
     <use xlink:href="#DejaVuSans-Bold-47"/>
     <use xlink:href="#DejaVuSans-Bold-44" transform="translate(71.578125 0)"/>
     <use xlink:href="#DejaVuSans-Bold-57" transform="translate(139.0625 0)"/>
     <use xlink:href="#DejaVuSans-Bold-44" transform="translate(186.859375 0)"/>
    </g>
   </g>
   <g id="patch_7">
    <path d="M 46.6506 126.5808 
L 58.3686 126.5808 
Q 61.1028 126.5808 61.1028 124.12296 
L 61.1028 113.58936 
Q 61.1028 111.13152 58.3686 111.13152 
L 46.6506 111.13152 
Q 43.9164 111.13152 43.9164 113.58936 
L 43.9164 124.12296 
Q 43.9164 126.5808 46.6506 126.5808 
z
" clip-path="url(#pfd408ea0b2)" style="fill: #0074a2"/>
   </g>
   <g id="patch_8">
    <path d="M 68.9148 126.5808 
L 80.6328 126.5808 
Q 83.367 126.5808 83.367 124.12296 
L 83.367 113.58936 
Q 83.367 111.13152 80.6328 111.13152 
L 68.9148 111.13152 
Q 66.1806 111.13152 66.1806 113.58936 
L 66.1806 124.12296 
Q 66.1806 126.5808 68.9148 126.5808 
z
" clip-path="url(#pfd408ea0b2)" style="fill: #ffffff; stroke: #9fc7d8; stroke-width: 1.4; stroke-linejoin: miter"/>
   </g>
   <g id="patch_9">
    <path d="M 91.179 126.5808 
L 102.897 126.5808 
Q 105.6312 126.5808 105.6312 124.12296 
L 105.6312 113.58936 
Q 105.6312 111.13152 102.897 111.13152 
L 91.179 111.13152 
Q 88.4448 111.13152 88.4448 113.58936 
L 88.4448 124.12296 
Q 88.4448 126.5808 91.179 126.5808 
z
" clip-path="url(#pfd408ea0b2)" style="fill: #0074a2"/>
   </g>
   <g id="patch_10">
    <path d="M 113.4432 126.5808 
L 125.1612 126.5808 
Q 127.8954 126.5808 127.8954 124.12296 
L 127.8954 113.58936 
Q 127.8954 111.13152 125.1612 111.13152 
L 113.4432 111.13152 
Q 110.709 111.13152 110.709 113.58936 
L 110.709 124.12296 
Q 110.709 126.5808 113.4432 126.5808 
z
" clip-path="url(#pfd408ea0b2)" style="fill: #ffffff; stroke: #9fc7d8; stroke-width: 1.4; stroke-linejoin: miter"/>
   </g>
   <g id="patch_11">
    <path d="M 135.7074 126.5808 
L 147.4254 126.5808 
Q 150.1596 126.5808 150.1596 124.12296 
L 150.1596 113.58936 
Q 150.1596 111.13152 147.4254 111.13152 
L 135.7074 111.13152 
Q 132.9732 111.13152 132.9732 113.58936 
L 132.9732 124.12296 
Q 132.9732 126.5808 135.7074 126.5808 
z
" clip-path="url(#pfd408ea0b2)" style="fill: #0074a2"/>
   </g>
   <g id="text_2">
    <!-- Dropna -->
    <g style="fill: #0074a2" transform="translate(265.397906 119.943684) scale(0.15 -0.15)">
     <defs>
      <path id="DejaVuSans-Bold-27" d="M 1791 3756 
L 1791 909 
L 2222 909 
Q 2959 909 3348 1275 
Q 3738 1641 3738 2338 
Q 3738 3031 3350 3393 
Q 2963 3756 2222 3756 
L 1791 3756 
z
M 588 4666 
L 1856 4666 
Q 2919 4666 3439 4514 
Q 3959 4363 4331 4000 
Q 4659 3684 4818 3271 
Q 4978 2859 4978 2338 
Q 4978 1809 4818 1395 
Q 4659 981 4331 666 
Q 3956 303 3431 151 
Q 2906 0 1856 0 
L 588 0 
L 588 4666 
z
" transform="scale(0.015625)"/>
      <path id="DejaVuSans-Bold-55" d="M 3138 2547 
Q 2991 2616 2845 2648 
Q 2700 2681 2553 2681 
Q 2122 2681 1889 2404 
Q 1656 2128 1656 1613 
L 1656 0 
L 538 0 
L 538 3500 
L 1656 3500 
L 1656 2925 
Q 1872 3269 2151 3426 
Q 2431 3584 2822 3584 
Q 2878 3584 2943 3579 
Q 3009 3575 3134 3559 
L 3138 2547 
z
" transform="scale(0.015625)"/>
      <path id="DejaVuSans-Bold-52" d="M 2203 2784 
Q 1831 2784 1636 2517 
Q 1441 2250 1441 1747 
Q 1441 1244 1636 976 
Q 1831 709 2203 709 
Q 2569 709 2762 976 
Q 2956 1244 2956 1747 
Q 2956 2250 2762 2517 
Q 2569 2784 2203 2784 
z
M 2203 3584 
Q 3106 3584 3614 3096 
Q 4122 2609 4122 1747 
Q 4122 884 3614 396 
Q 3106 -91 2203 -91 
Q 1297 -91 786 396 
Q 275 884 275 1747 
Q 275 2609 786 3096 
Q 1297 3584 2203 3584 
z
" transform="scale(0.015625)"/>
      <path id="DejaVuSans-Bold-53" d="M 1656 506 
L 1656 -1331 
L 538 -1331 
L 538 3500 
L 1656 3500 
L 1656 2988 
Q 1888 3294 2169 3439 
Q 2450 3584 2816 3584 
Q 3463 3584 3878 3070 
Q 4294 2556 4294 1747 
Q 4294 938 3878 423 
Q 3463 -91 2816 -91 
Q 2450 -91 2169 54 
Q 1888 200 1656 506 
z
M 2400 2772 
Q 2041 2772 1848 2508 
Q 1656 2244 1656 1747 
Q 1656 1250 1848 986 
Q 2041 722 2400 722 
Q 2759 722 2948 984 
Q 3138 1247 3138 1747 
Q 3138 2247 2948 2509 
Q 2759 2772 2400 2772 
z
" transform="scale(0.015625)"/>
      <path id="DejaVuSans-Bold-51" d="M 4056 2131 
L 4056 0 
L 2931 0 
L 2931 347 
L 2931 1631 
Q 2931 2084 2911 2256 
Q 2891 2428 2841 2509 
Q 2775 2619 2662 2680 
Q 2550 2741 2406 2741 
Q 2056 2741 1856 2470 
Q 1656 2200 1656 1722 
L 1656 0 
L 538 0 
L 538 3500 
L 1656 3500 
L 1656 2988 
Q 1909 3294 2193 3439 
Q 2478 3584 2822 3584 
Q 3428 3584 3742 3212 
Q 4056 2841 4056 2131 
z
" transform="scale(0.015625)"/>
     </defs>
     <use xlink:href="#DejaVuSans-Bold-27"/>
     <use xlink:href="#DejaVuSans-Bold-55" transform="translate(83.015625 0)"/>
     <use xlink:href="#DejaVuSans-Bold-52" transform="translate(132.328125 0)"/>
     <use xlink:href="#DejaVuSans-Bold-53" transform="translate(201.03125 0)"/>
     <use xlink:href="#DejaVuSans-Bold-51" transform="translate(272.609375 0)"/>
     <use xlink:href="#DejaVuSans-Bold-44" transform="translate(343.796875 0)"/>
    </g>
   </g>
   <g id="text_3">
    <!-- cleaned -->
    <g style="fill: #0074a2" transform="translate(456.875187 104.937426) scale(0.14 -0.14)">
     <defs>
      <path id="DejaVuSans-Bold-46" d="M 3366 3391 
L 3366 2478 
Q 3138 2634 2908 2709 
Q 2678 2784 2431 2784 
Q 1963 2784 1702 2511 
Q 1441 2238 1441 1747 
Q 1441 1256 1702 982 
Q 1963 709 2431 709 
Q 2694 709 2930 787 
Q 3166 866 3366 1019 
L 3366 103 
Q 3103 6 2833 -42 
Q 2563 -91 2291 -91 
Q 1344 -91 809 395 
Q 275 881 275 1747 
Q 275 2613 809 3098 
Q 1344 3584 2291 3584 
Q 2566 3584 2833 3536 
Q 3100 3488 3366 3391 
z
" transform="scale(0.015625)"/>
      <path id="DejaVuSans-Bold-4f" d="M 538 4863 
L 1656 4863 
L 1656 0 
L 538 0 
L 538 4863 
z
" transform="scale(0.015625)"/>
      <path id="DejaVuSans-Bold-48" d="M 4031 1759 
L 4031 1441 
L 1416 1441 
Q 1456 1047 1700 850 
Q 1944 653 2381 653 
Q 2734 653 3104 758 
Q 3475 863 3866 1075 
L 3866 213 
Q 3469 63 3072 -14 
Q 2675 -91 2278 -91 
Q 1328 -91 801 392 
Q 275 875 275 1747 
Q 275 2603 792 3093 
Q 1309 3584 2216 3584 
Q 3041 3584 3536 3087 
Q 4031 2591 4031 1759 
z
M 2881 2131 
Q 2881 2450 2695 2645 
Q 2509 2841 2209 2841 
Q 1884 2841 1681 2658 
Q 1478 2475 1428 2131 
L 2881 2131 
z
" transform="scale(0.015625)"/>
     </defs>
     <use xlink:href="#DejaVuSans-Bold-46"/>
     <use xlink:href="#DejaVuSans-Bold-4f" transform="translate(59.28125 0)"/>
     <use xlink:href="#DejaVuSans-Bold-48" transform="translate(93.5625 0)"/>
     <use xlink:href="#DejaVuSans-Bold-44" transform="translate(161.390625 0)"/>
     <use xlink:href="#DejaVuSans-Bold-51" transform="translate(228.875 0)"/>
     <use xlink:href="#DejaVuSans-Bold-48" transform="translate(300.0625 0)"/>
     <use xlink:href="#DejaVuSans-Bold-47" transform="translate(367.890625 0)"/>
    </g>
   </g>
   <g id="patch_12">
    <path d="M 459.5148 126.5808 
L 471.2328 126.5808 
Q 473.967 126.5808 473.967 124.12296 
L 473.967 113.58936 
Q 473.967 111.13152 471.2328 111.13152 
L 459.5148 111.13152 
Q 456.7806 111.13152 456.7806 113.58936 
L 456.7806 124.12296 
Q 456.7806 126.5808 459.5148 126.5808 
z
" clip-path="url(#pfd408ea0b2)" style="fill: #0074a2"/>
   </g>
   <g id="patch_13">
    <path d="M 481.779 126.5808 
L 493.497 126.5808 
Q 496.2312 126.5808 496.2312 124.12296 
L 496.2312 113.58936 
Q 496.2312 111.13152 493.497 111.13152 
L 481.779 111.13152 
Q 479.0448 111.13152 479.0448 113.58936 
L 479.0448 124.12296 
Q 479.0448 126.5808 481.779 126.5808 
z
" clip-path="url(#pfd408ea0b2)" style="fill: #0074a2"/>
   </g>
   <g id="patch_14">
    <path d="M 504.0432 126.5808 
L 515.7612 126.5808 
Q 518.4954 126.5808 518.4954 124.12296 
L 518.4954 113.58936 
Q 518.4954 111.13152 515.7612 111.13152 
L 504.0432 111.13152 
Q 501.309 111.13152 501.309 113.58936 
L 501.309 124.12296 
Q 501.309 126.5808 504.0432 126.5808 
z
" clip-path="url(#pfd408ea0b2)" style="fill: #0074a2"/>
   </g>
  </g>
 </g>
 <defs>
  <clipPath id="pfd408ea0b2">
   <rect x="7.2" y="7.2" width="585.9" height="210.672"/>
  </clipPath>
 </defs>
</svg>
