<?xml version="1.0" encoding="utf-8" standalone="no"?>
<!DOCTYPE svg PUBLIC "-//W3C//DTD SVG 1.1//EN"
  "http://www.w3.org/Graphics/SVG/1.1/DTD/svg11.dtd">
<svg xmlns:xlink="http://www.w3.org/1999/xlink" width="600.3pt" height="225.072pt" viewBox="0 0 600.3 225.072" xmlns="http://www.w3.org/2000/svg" version="1.1">
 <metadata>
  <rdf:RDF xmlns:dc="http://purl.org/dc/elements/1.1/" xmlns:cc="http://creativecommons.org/ns#" xmlns:rdf="http://www.w3.org/1999/02/22-rdf-syntax-ns#">
   <cc:Work>
    <dc:type rdf:resource="http://purl.org/dc/dcmitype/StillImage"/>
    <dc:format>image/svg+xml</dc:format>
    <dc:creator>
     <cc:Agent>
      <dc:title>Matplotlib v3.11.0, https://matplotlib.org/</dc:title>
     </cc:Agent>
    </dc:creator>
   </cc:Work>
  </rdf:RDF>
 </metadata>
 <defs>
  <style type="text/css">*{stroke-linejoin: round; stroke-linecap: butt}</style>
 </defs>
 <g id="figure_1">
  <g id="patch_1">
   <path d="M 0 225.072 
L 600.3 225.072 
L 600.3 -0 
L 0 -0 
L 0 225.072 
z
" style="fill: none"/>
  </g>
  <g id="axes_1">
   <g id="patch_2">
    <path d="M 30.2454 93.2244 
L 163.8306 93.2244 
Q 169.299 93.2244 169.299 88.30872 
L 169.299 45.47208 
Q 169.299 40.5564 163.8306 40.5564 
L 30.2454 40.5564 
Q 24.777 40.5564 24.777 45.47208 
L 24.777 88.30872 
Q 24.777 93.2244 30.2454 93.2244 
L 30.2454 93.2244 
z
" clip-path="url(#pb43e2cb359)" style="fill: none; stroke-dasharray: 6.8,5.1; stroke-dashoffset: 0; stroke: #9fc7d8; stroke-width: 1.7; stroke-linejoin: miter"/>
   </g>
   <g id="patch_3">
    <path d="M 30.2454 191.538 
L 163.8306 191.538 
Q 169.299 191.538 169.299 186.62232 
L 169.299 143.78568 
Q 169.299 138.87 163.8306 138.87 
L 30.2454 138.87 
Q 24.777 138.87 24.777 143.78568 
L 24.777 186.62232 
Q 24.777 191.538 30.2454 191.538 
L 30.2454 191.538 
z
" clip-path="url(#pb43e2cb359)" style="fill: none; stroke-dasharray: 6.8,5.1; stroke-dashoffset: 0; stroke: #9fc7d8; stroke-width: 1.7; stroke-linejoin: miter"/>
   </g>
   <g id="patch_4">
    <path d="M 416.9394 142.3812 
L 558.3366 142.3812 
Q 563.805 142.3812 563.805 137.46552 
L 563.805 94.62888 
Q 563.805 89.7132 558.3366 89.7132 
L 416.9394 89.7132 
Q 411.471 89.7132 411.471 94.62888 
L 411.471 137.46552 
Q 411.471 142.3812 416.9394 142.3812 
L 416.9394 142.3812 
z
" clip-path="url(#pb43e2cb359)" style="fill: none; stroke-dasharray: 6.8,5.1; stroke-dashoffset: 0; stroke: #9fc7d8; stroke-width: 1.7; stroke-linejoin: miter"/>
   </g>
   <g id="patch_5">
    <path d="M 257.5746 138.87 
L 334.9134 138.87 
Q 341.163 138.87 341.163 133.25208 
L 341.163 98.84232 
Q 341.163 93.2244 334.9134 93.2244 
L 257.5746 93.2244 
Q 251.325 93.2244 251.325 98.84232 
L 251.325 133.25208 
Q 251.325 138.87 257.5746 138.87 
z
" clip-path="url(#pb43e2cb359)" style="fill: #d7eff6"/>
   </g>
   <g id="patch_6">
    <path d="M 173.943573 68.221137 
Q 210.31233 86.202163 244.576401 103.142615 
" clip-path="url(#pb43e2cb359)" style="fill: none; stroke: #0074a2; stroke-width: 2.1; stroke-linecap: round"/>
    <path d="M 240.52746 97.79415 
L 244.576401 103.142615 
L 237.868265 103.172688 
z
" clip-path="url(#pb43e2cb359)" style="fill: #0074a2; stroke: #0074a2; stroke-width: 2.1; stroke-linecap: round"/>
   </g>
   <g id="patch_7">
    <path d="M 173.943573 163.873263 
Q 210.31233 145.892237 244.576401 128.951785 
" clip-path="url(#pb43e2cb359)" style="fill: none; stroke: #0074a2; stroke-width: 2.1; stroke-linecap: round"/>
    <path d="M 237.868265 128.921712 
L 244.576401 128.951785 
L 240.52746 134.30025 
z
" clip-path="url(#pb43e2cb359)" style="fill: #0074a2; stroke: #0074a2; stroke-width: 2.1; stroke-linecap: round"/>
   </g>
   <g id="patch_8">
    <path d="M 346.11571 116.0472 
Q 377.291508 116.0472 406.119434 116.0472 
" clip-path="url(#pb43e2cb359)" style="fill: none; stroke: #0074a2; stroke-width: 2.1; stroke-linecap: round"/>
    <path d="M 400.119434 113.0472 
L 406.119434 116.0472 
L 400.119434 119.0472 
z
" clip-path="url(#pb43e2cb359)" style="fill: #0074a2; stroke: #0074a2; stroke-width: 2.1; stroke-linecap: round"/>
   </g>
   <g id="text_1">
    <!-- data -->
    <g style="fill: #0074a2" transform="translate(79.233937 55.780626) scale(0.14 -0.14)">
     <defs>
      <path id="DejaVuSans-Bold-47" d="M 2919 2988 
L 2919 4863 
L 4044 4863 
L 4044 0 
L 2919 0 
L 2919 506 
Q 2688 197 2409 53 
Q 2131 -91 1766 -91 
Q 1119 -91 703 423 
Q 288 938 288 1747 
Q 288 2556 703 3070 
Q 1119 3584 1766 3584 
Q 2128 3584 2408 3439 
Q 2688 3294 2919 2988 
z
M 2181 722 
Q 2541 722 2730 984 
Q 2919 1247 2919 1747 
Q 2919 2247 2730 2509 
Q 2541 2772 2181 2772 
Q 1825 2772 1636 2509 
Q 1447 2247 1447 1747 
Q 1447 1247 1636 984 
Q 1825 722 2181 722 
z
" transform="scale(0.015625)"/>
      <path id="DejaVuSans-Bold-44" d="M 2106 1575 
Q 1756 1575 1579 1456 
Q 1403 1338 1403 1106 
Q 1403 894 1545 773 
Q 1688 653 1941 653 
Q 2256 653 2472 879 
Q 2688 1106 2688 1447 
L 2688 1575 
L 2106 1575 
z
M 3816 1997 
L 3816 0 
L 2688 0 
L 2688 519 
Q 2463 200 2181 54 
Q 1900 -91 1497 -91 
Q 953 -91 614 226 
Q 275 544 275 1050 
Q 275 1666 698 1953 
Q 1122 2241 2028 2241 
L 2688 2241 
L 2688 2328 
Q 2688 2594 2478 2717 
Q 2269 2841 1825 2841 
Q 1466 2841 1156 2769 
Q 847 2697 581 2553 
L 581 3406 
Q 941 3494 1303 3539 
Q 1666 3584 2028 3584 
Q 2975 3584 3395 3211 
Q 3816 2838 3816 1997 
z
" transform="scale(0.015625)"/>
      <path id="DejaVuSans-Bold-57" d="M 1759 4494 
L 1759 3500 
L 2913 3500 
L 2913 2700 
L 1759 2700 
L 1759 1216 
Q 1759 972 1856 886 
Q 1953 800 2241 800 
L 2816 800 
L 2816 0 
L 1856 0 
Q 1194 0 917 276 
Q 641 553 641 1216 
L 641 2700 
L 84 2700 
L 84 3500 
L 641 3500 
L 641 4494 
L 1759 4494 
z
" transform="scale(0.015625)"/>
     </defs>
     <use xlink:href="#DejaVuSans-Bold-47"/>
     <use xlink:href="#DejaVuSans-Bold-44" transform="translate(71.578125 0)"/>
     <use xlink:href="#DejaVuSans-Bold-57" transform="translate(139.0625 0)"/>
     <use xlink:href="#DejaVuSans-Bold-44" transform="translate(186.859375 0)"/>
    </g>
   </g>
   <g id="patch_9">
    <path d="M 35.5185 77.424 
L 47.2365 77.424 
Q 49.9707 77.424 49.9707 74.96616 
L 49.9707 64.43256 
Q 49.9707 61.97472 47.2365 61.97472 
L 35.5185 61.97472 
Q 32.7843 61.97472 32.7843 64.43256 
L 32.7843 74.96616 
Q 32.7843 77.424 35.5185 77.424 
z
" clip-path="url(#pb43e2cb359)" style="fill: #0074a2"/>
   </g>
   <g id="patch_10">
    <path d="M 57.7827 77.424 
L 69.5007 77.424 
Q 72.2349 77.424 72.2349 74.96616 
L 72.2349 64.43256 
Q 72.2349 61.97472 69.5007 61.97472 
L 57.7827 61.97472 
Q 55.0485 61.97472 55.0485 64.43256 
L 55.0485 74.96616 
Q 55.0485 77.424 57.7827 77.424 
z
" clip-path="url(#pb43e2cb359)" style="fill: #0074a2"/>
   </g>
   <g id="patch_11">
    <path d="M 80.0469 77.424 
L 91.7649 77.424 
Q 94.4991 77.424 94.4991 74.96616 
L 94.4991 64.43256 
Q 94.4991 61.97472 91.7649 61.97472 
L 80.0469 61.97472 
Q 77.3127 61.97472 77.3127 64.43256 
L 77.3127 74.96616 
Q 77.3127 77.424 80.0469 77.424 
z
" clip-path="url(#pb43e2cb359)" style="fill: #0074a2"/>
   </g>
   <g id="patch_12">
    <path d="M 102.3111 77.424 
L 114.0291 77.424 
Q 116.7633 77.424 116.7633 74.96616 
L 116.7633 64.43256 
Q 116.7633 61.97472 114.0291 61.97472 
L 102.3111 61.97472 
Q 99.5769 61.97472 99.5769 64.43256 
L 99.5769 74.96616 
Q 99.5769 77.424 102.3111 77.424 
z
" clip-path="url(#pb43e2cb359)" style="fill: #0074a2"/>
   </g>
   <g id="patch_13">
    <path d="M 124.5753 77.424 
L 136.2933 77.424 
Q 139.0275 77.424 139.0275 74.96616 
L 139.0275 64.43256 
Q 139.0275 61.97472 136.2933 61.97472 
L 124.5753 61.97472 
Q 121.8411 61.97472 121.8411 64.43256 
L 121.8411 74.96616 
Q 121.8411 77.424 124.5753 77.424 
z
" clip-path="url(#pb43e2cb359)" style="fill: #0074a2"/>
   </g>
   <g id="patch_14">
    <path d="M 146.8395 77.424 
L 158.5575 77.424 
Q 161.2917 77.424 161.2917 74.96616 
L 161.2917 64.43256 
Q 161.2917 61.97472 158.5575 61.97472 
L 146.8395 61.97472 
Q 144.1053 61.97472 144.1053 64.43256 
L 144.1053 74.96616 
Q 144.1053 77.424 146.8395 77.424 
z
" clip-path="url(#pb43e2cb359)" style="fill: #0074a2"/>
   </g>
   <g id="text_2">
    <!-- mask -->
    <g style="fill: #0074a2" transform="translate(76.198781 154.094226) scale(0.14 -0.14)">
     <defs>
      <path id="DejaVuSans-Bold-50" d="M 3781 2919 
Q 3994 3244 4286 3414 
Q 4578 3584 4928 3584 
Q 5531 3584 5847 3212 
Q 6163 2841 6163 2131 
L 6163 0 
L 5038 0 
L 5038 1825 
Q 5041 1866 5042 1909 
Q 5044 1953 5044 2034 
Q 5044 2406 4934 2573 
Q 4825 2741 4581 2741 
Q 4263 2741 4089 2478 
Q 3916 2216 3909 1719 
L 3909 0 
L 2784 0 
L 2784 1825 
Q 2784 2406 2684 2573 
Q 2584 2741 2328 2741 
Q 2006 2741 1831 2477 
Q 1656 2213 1656 1722 
L 1656 0 
L 531 0 
L 531 3500 
L 1656 3500 
L 1656 2988 
Q 1863 3284 2130 3434 
Q 2397 3584 2719 3584 
Q 3081 3584 3359 3409 
Q 3638 3234 3781 2919 
z
" transform="scale(0.015625)"/>
      <path id="DejaVuSans-Bold-56" d="M 3272 3391 
L 3272 2541 
Q 2913 2691 2578 2766 
Q 2244 2841 1947 2841 
Q 1628 2841 1473 2761 
Q 1319 2681 1319 2516 
Q 1319 2381 1436 2309 
Q 1553 2238 1856 2203 
L 2053 2175 
Q 2913 2066 3209 1816 
Q 3506 1566 3506 1031 
Q 3506 472 3093 190 
Q 2681 -91 1863 -91 
Q 1516 -91 1145 -36 
Q 775 19 384 128 
L 384 978 
Q 719 816 1070 734 
Q 1422 653 1784 653 
Q 2113 653 2278 743 
Q 2444 834 2444 1013 
Q 2444 1163 2330 1236 
Q 2216 1309 1875 1350 
L 1678 1375 
Q 931 1469 631 1722 
Q 331 1975 331 2491 
Q 331 3047 712 3315 
Q 1094 3584 1881 3584 
Q 2191 3584 2531 3537 
Q 2872 3491 3272 3391 
z
" transform="scale(0.015625)"/>
      <path id="DejaVuSans-Bold-4e" d="M 538 4863 
L 1656 4863 
L 1656 2216 
L 2944 3500 
L 4244 3500 
L 2534 1894 
L 4378 0 
L 3022 0 
L 1656 1459 
L 1656 0 
L 538 0 
L 538 4863 
z
" transform="scale(0.015625)"/>
     </defs>
     <use xlink:href="#DejaVuSans-Bold-50"/>
     <use xlink:href="#DejaVuSans-Bold-44" transform="translate(104.203125 0)"/>
     <use xlink:href="#DejaVuSans-Bold-56" transform="translate(171.6875 0)"/>
     <use xlink:href="#DejaVuSans-Bold-4e" transform="translate(231.203125 0)"/>
    </g>
   </g>
   <g id="patch_15">
    <path d="M 35.5185 175.7376 
L 47.2365 175.7376 
Q 49.9707 175.7376 49.9707 173.27976 
L 49.9707 162.74616 
Q 49.9707 160.28832 47.2365 160.28832 
L 35.5185 160.28832 
Q 32.7843 160.28832 32.7843 162.74616 
L 32.7843 173.27976 
Q 32.7843 175.7376 35.5185 175.7376 
z
" clip-path="url(#pb43e2cb359)" style="fill: #0074a2"/>
   </g>
   <g id="patch_16">
    <path d="M 57.7827 175.7376 
L 69.5007 175.7376 
Q 72.2349 175.7376 72.2349 173.27976 
L 72.2349 162.74616 
Q 72.2349 160.28832 69.5007 160.28832 
L 57.7827 160.28832 
Q 55.0485 160.28832 55.0485 162.74616 
L 55.0485 173.27976 
Q 55.0485 175.7376 57.7827 175.7376 
z
" clip-path="url(#pb43e2cb359)" style="fill: #ffffff; stroke: #9fc7d8; stroke-width: 1.4; stroke-linejoin: miter"/>
   </g>
   <g id="patch_17">
    <path d="M 80.0469 175.7376 
L 91.7649 175.7376 
Q 94.4991 175.7376 94.4991 173.27976 
L 94.4991 162.74616 
Q 94.4991 160.28832 91.7649 160.28832 
L 80.0469 160.28832 
Q 77.3127 160.28832 77.3127 162.74616 
L 77.3127 173.27976 
Q 77.3127 175.7376 80.0469 175.7376 
z
" clip-path="url(#pb43e2cb359)" style="fill: #0074a2"/>
   </g>
   <g id="patch_18">
    <path d="M 102.3111 175.7376 
L 114.0291 175.7376 
Q 116.7633 175.7376 116.7633 173.27976 
L 116.7633 162.74616 
Q 116.7633 160.28832 114.0291 160.28832 
L 102.3111 160.28832 
Q 99.5769 160.28832 99.5769 162.74616 
L 99.5769 173.27976 
Q 99.5769 175.7376 102.3111 175.7376 
z
" clip-path="url(#pb43e2cb359)" style="fill: #ffffff; stroke: #9fc7d8; stroke-width: 1.4; stroke-linejoin: miter"/>
   </g>
   <g id="patch_19">
    <path d="M 124.5753 175.7376 
L 136.2933 175.7376 
Q 139.0275 175.7376 139.0275 173.27976 
L 139.0275 162.74616 
Q 139.0275 160.28832 136.2933 160.28832 
L 124.5753 160.28832 
Q 121.8411 160.28832 121.8411 162.74616 
L 121.8411 173.27976 
Q 121.8411 175.7376 124.5753 175.7376 
z
" clip-path="url(#pb43e2cb359)" style="fill: #0074a2"/>
   </g>
   <g id="patch_20">
    <path d="M 146.8395 175.7376 
L 158.5575 175.7376 
Q 161.2917 175.7376 161.2917 173.27976 
L 161.2917 162.74616 
Q 161.2917 160.28832 158.5575 160.28832 
L 146.8395 160.28832 
Q 144.1053 160.28832 144.1053 162.74616 
L 144.1053 173.27976 
Q 144.1053 175.7376 146.8395 175.7376 
z
" clip-path="url(#pb43e2cb359)" style="fill: #0074a2"/>
   </g>
   <g id="text_3">
    <!-- Filter -->
    <g style="fill: #0074a2" transform="translate(273.608062 119.94427) scale(0.15 -0.15)">
     <defs>
      <path id="DejaVuSans-Bold-29" d="M 588 4666 
L 3834 4666 
L 3834 3756 
L 1791 3756 
L 1791 2888 
L 3713 2888 
L 3713 1978 
L 1791 1978 
L 1791 0 
L 588 0 
L 588 4666 
z
" transform="scale(0.015625)"/>
      <path id="DejaVuSans-Bold-4c" d="M 538 3500 
L 1656 3500 
L 1656 0 
L 538 0 
L 538 3500 
z
M 538 4863 
L 1656 4863 
L 1656 3950 
L 538 3950 
L 538 4863 
z
" transform="scale(0.015625)"/>
      <path id="DejaVuSans-Bold-4f" d="M 538 4863 
L 1656 4863 
L 1656 0 
L 538 0 
L 538 4863 
z
" transform="scale(0.015625)"/>
      <path id="DejaVuSans-Bold-48" d="M 4031 1759 
L 4031 1441 
L 1416 1441 
Q 1456 1047 1700 850 
Q 1944 653 2381 653 
Q 2734 653 3104 758 
Q 3475 863 3866 1075 
L 3866 213 
Q 3469 63 3072 -14 
Q 2675 -91 2278 -91 
Q 1328 -91 801 392 
Q 275 875 275 1747 
Q 275 2603 792 3093 
Q 1309 3584 2216 3584 
Q 3041 3584 3536 3087 
Q 4031 2591 4031 1759 
z
M 2881 2131 
Q 2881 2450 2695 2645 
Q 2509 2841 2209 2841 
Q 1884 2841 1681 2658 
Q 1478 2475 1428 2131 
L 2881 2131 
z
" transform="scale(0.015625)"/>
      <path id="DejaVuSans-Bold-55" d="M 3138 2547 
Q 2991 2616 2845 2648 
Q 2700 2681 2553 2681 
Q 2122 2681 1889 2404 
Q 1656 2128 1656 1613 
L 1656 0 
L 538 0 
L 538 3500 
L 1656 3500 
L 1656 2925 
Q 1872 3269 2151 3426 
Q 2431 3584 2822 3584 
Q 2878 3584 2943 3579 
Q 3009 3575 3134 3559 
L 3138 2547 
z
" transform="scale(0.015625)"/>
     </defs>
     <use xlink:href="#DejaVuSans-Bold-29"/>
     <use xlink:href="#DejaVuSans-Bold-4c" transform="translate(68.3125 0)"/>
     <use xlink:href="#DejaVuSans-Bold-4f" transform="translate(102.59375 0)"/>
     <use xlink:href="#DejaVuSans-Bold-57" transform="translate(136.875 0)"/>
     <use xlink:href="#DejaVuSans-Bold-48" transform="translate(184.671875 0)"/>
     <use xlink:href="#DejaVuSans-Bold-55" transform="translate(252.5 0)"/>
    </g>
   </g>
   <g id="text_4">
    <!-- kept -->
    <g style="fill: #0074a2" transform="translate(470.066906 104.937426) scale(0.14 -0.14)">
     <defs>
      <path id="DejaVuSans-Bold-53" d="M 1656 506 
L 1656 -1331 
L 538 -1331 
L 538 3500 
L 1656 3500 
L 1656 2988 
Q 1888 3294 2169 3439 
Q 2450 3584 2816 3584 
Q 3463 3584 3878 3070 
Q 4294 2556 4294 1747 
Q 4294 938 3878 423 
Q 3463 -91 2816 -91 
Q 2450 -91 2169 54 
Q 1888 200 1656 506 
z
M 2400 2772 
Q 2041 2772 1848 2508 
Q 1656 2244 1656 1747 
Q 1656 1250 1848 986 
Q 2041 722 2400 722 
Q 2759 722 2948 984 
Q 3138 1247 3138 1747 
Q 3138 2247 2948 2509 
Q 2759 2772 2400 2772 
z
" transform="scale(0.015625)"/>
     </defs>
     <use xlink:href="#DejaVuSans-Bold-4e"/>
     <use xlink:href="#DejaVuSans-Bold-48" transform="translate(63.8125 0)"/>
     <use xlink:href="#DejaVuSans-Bold-53" transform="translate(131.640625 0)"/>
     <use xlink:href="#DejaVuSans-Bold-57" transform="translate(203.21875 0)"/>
    </g>
   </g>
   <g id="patch_21">
    <path d="M 448.3827 126.5808 
L 460.1007 126.5808 
Q 462.8349 126.5808 462.8349 124.12296 
L 462.8349 113.58936 
Q 462.8349 111.13152 460.1007 111.13152 
L 448.3827 111.13152 
Q 445.6485 111.13152 445.6485 113.58936 
L 445.6485 124.12296 
Q 445.6485 126.5808 448.3827 126.5808 
z
" clip-path="url(#pb43e2cb359)" style="fill: #0074a2"/>
   </g>
   <g id="patch_22">
    <path d="M 470.6469 126.5808 
L 482.3649 126.5808 
Q 485.0991 126.5808 485.0991 124.12296 
L 485.0991 113.58936 
Q 485.0991 111.13152 482.3649 111.13152 
L 470.6469 111.13152 
Q 467.9127 111.13152 467.9127 113.58936 
L 467.9127 124.12296 
Q 467.9127 126.5808 470.6469 126.5808 
z
" clip-path="url(#pb43e2cb359)" style="fill: #0074a2"/>
   </g>
   <g id="patch_23">
    <path d="M 492.9111 126.5808 
L 504.6291 126.5808 
Q 507.3633 126.5808 507.3633 124.12296 
L 507.3633 113.58936 
Q 507.3633 111.13152 504.6291 111.13152 
L 492.9111 111.13152 
Q 490.1769 111.13152 490.1769 113.58936 
L 490.1769 124.12296 
Q 490.1769 126.5808 492.9111 126.5808 
z
" clip-path="url(#pb43e2cb359)" style="fill: #0074a2"/>
   </g>
   <g id="patch_24">
    <path d="M 515.1753 126.5808 
L 526.8933 126.5808 
Q 529.6275 126.5808 529.6275 124.12296 
L 529.6275 113.58936 
Q 529.6275 111.13152 526.8933 111.13152 
L 515.1753 111.13152 
Q 512.4411 111.13152 512.4411 113.58936 
L 512.4411 124.12296 
Q 512.4411 126.5808 515.1753 126.5808 
z
" clip-path="url(#pb43e2cb359)" style="fill: #0074a2"/>
   </g>
  </g>
 </g>
 <defs>
  <clipPath id="pb43e2cb359">
   <rect x="7.2" y="7.2" width="585.9" height="210.672"/>
  </clipPath>
 </defs>
</svg>
